<svg xmlns="http://www.w3.org/2000/svg" width="839.6" height="839.6"><defs><clipPath id="a" clipPathUnits="userSpaceOnUse"><path d="M0 630h630V0H0Z"/></clipPath><clipPath id="b" clipPathUnits="userSpaceOnUse"><path d="M0 630h630V0H0Z"/></clipPath><clipPath id="c" clipPathUnits="userSpaceOnUse"><path d="M0 630h630V0H0Z"/></clipPath><clipPath id="d" clipPathUnits="userSpaceOnUse"><path d="M0 630h630V0H0Z"/></clipPath></defs><g clip-path="url(#a)" transform="matrix(1.3333 0 0 -1.3333 0 840)"><path d="M0 0s-15 9-18 20c0 0-16 12-24 30 0 0-5 5-6 14 0 0-5 3-9 9s-16 15-16 15l-19-2c-9-3-31-2-35-2l-16-2s-22-8-42-9c-19 0-44 4-56 0 0 0-4-6-7-7-3-2-6-7-5-11 0-4 2-12 1-14s-5-3-6-1c0 0 0-6-2-7-1-1-5-1-5 2l-2 20s-2 1-3-3c0-4-2-14-4-17-3-4-8-4-8-1l1 4s-3-1-3 3l1 13v13c0 4 2 7 4 9l2 5-7 2s-7 2-7 7 3 5 5 4c2-2 3-4 8-4 5 1 3 2 9 2 5 0 10-1 13 1 4 2 12 4 24 4 11 0 19 3 25 3 5 0 15 5 24 6h33s4 4 16 4c11 0 24 5 31 10 6 4 14 14 47 16 0 0-1 5 10 10 0 0 1 14-2 23-2 8-3 3-5 11 0 1-4-1-4 2l1 6c0 3-3 12-1 17 0 0 1 3-1 8-1 5 2 10 5 13 2 3 1 5 9 9s24 3 29-3l17-26c4-5 4-9 3-12s0-6-7-6c0 1-6-11-4-22 0 0 1-2 5-2l16 8c4 4 15 14 39 8l21 12c13 7 26 14 37 15 0 0 17 9 26 18 10 8 20 9 29 18 9 8 13 11 16 18 4 8 7 15 11 17 5 3 8 7 11 7 4 1 7 5 9 3 1-3 0-8-7-9l-1-3 6 2c4 1 10 7 16 8 5 1 9 4 11 1 2-2-2-5-7-7-5-1-12-7-12-7l11 5c4 2 9 5 13 4 4 0 5-3 1-4l-13-7-9-5h6c4 1 9 5 12 5 3 1 8 2 8 0 0-3-1-5-4-5l-11-5-10-3 11 3c4 1 8 1 7-1 0-2-5-4-7-6l-15-4c-1-1-14-7-23-7l-8-9c-3-3-24-27-35-33-12-6-20-14-29-16-8-3-21-11-28-16s-21-15-29-19c-8-3-9-10-16-13l-3-18c-2-7 3-19 3-20l8-14z" style="fill:#dadada;fill-opacity:1;fill-rule:nonzero;stroke:none" transform="translate(331 250)"/><path d="m0 0-8-9c-4-3-24-26-36-32-11-6-20-14-28-17-9-2-22-11-29-16s-20-15-28-18c-8-4-9-10-17-13l-3-19c-1-6 3-19 4-20 0 0-4 2-6 6-3 3-4 11-7 11-2 1-11 1-5 3 5 1-1 4-2 4-2 0-8-1-5 2s4 6 1 7-1 2-2 5-2 5-4 5c-3 1-7 3-6 7 0 3-4 9-1 9s5 0 9 3c5 3 5 5 11 5 7-1 6 3 6 5s2 5 3 0c1-6-2-11 2-9 5 2 7 1 10 0 2-1-1-3-5-5-4-1-9-11-11-9-2 1-4 1-3-5 0-7 2-14 4-7s0 6 3 9 2 7 7 9c5 1 9 3 11 6s2 4 9 4c6 0 10 5 15 9 5 3 7 7 14 11s20 9 29 12c8 2 17 11 22 15s12 12 19 15 9 3 12 6l9 10" style="fill:#bdbdbc;fill-opacity:1;fill-rule:nonzero;stroke:none" transform="translate(529 492)"/><path d="M0 0c0-2-1-4-3-5l-12-4-9-4c-2 0-4 1-2 2l8 2 9 4 6 3 3 2" style="fill:#bdbdbc;fill-opacity:1;fill-rule:nonzero;stroke:none" transform="translate(580 520)"/><path d="M0 0c0-1 0-2-2-3l-13-6-9-5 2 2 7 4 7 4 5 2c2 0 3 2 3 2" style="fill:#bdbdbc;fill-opacity:1;fill-rule:nonzero;stroke:none" transform="translate(578 530)"/><path d="M0 0c1-2-3-5-7-6-5-1-12-7-12-7s-3-1 0 1l9 6 6 2 2 2 2 2" style="fill:#bdbdbc;fill-opacity:1;fill-rule:nonzero;stroke:none" transform="translate(570 536)"/><path d="M0 0c2-2 0-7-7-9l-1-3 2 1s-1-3-3-3c-1-1-7-2-5 0l4 4c0 2 0 3 2 3s4 2 5 3l3 4" style="fill:#bdbdbc;fill-opacity:1;fill-rule:nonzero;stroke:none" transform="translate(545 537)"/><path d="M0 0s-2 1-3-3c0-3-2-14-4-17-3-4-8-4-8-1l1 5s-3-2-3 0 3-1 5 8l1 11 3 11v6c0 2-1 2-2 2h-2l2 4s-3 0-7 3c0 0-7 1-7 7 0 1 1 2 2 1 0-2 2-4 4-5l9-3c3 1 2 3 6 2 5-2 5-4 9-3 3 2 4 4 7 3 4-1 2-4 5-4l6-4-4-9a557 557 0 0 1-6-14c0-4 2-12 1-14-1-1-5-2-6 0 0 0 0-7-2-7-1-1-5-1-5 2v1s2-7 3 1v12c0 3 0 5-2 5H0" style="fill:#bdbdbc;fill-opacity:1;fill-rule:nonzero;stroke:none" transform="translate(64 305)"/><path d="M0 0c1 2 2 3 6 3 5 0 8 2 4 3C6 6 3 8 0 6c-4-2-11-5-12-4-2 1-9 4-7 0 1-4 5-10 9-10 4 1 7 2 7 5l3 3" style="fill:#bdbdbc;fill-opacity:1;fill-rule:nonzero;stroke:none" transform="translate(315 305)"/><path d="M0 0c1-1-1-3-3-4-2 0-5-2-5 0l1 4h3l-2-2h2l2 1c0 1 1 2 2 1" style="fill:#bdbdbc;fill-opacity:1;fill-rule:nonzero;stroke:none" transform="translate(336 304)"/><path d="M0 0h8c3-1 4 1 2 3S5 8 2 8s-9-2-8-4c0-2 2-5 6-4" style="fill:#bdbdbc;fill-opacity:1;fill-rule:nonzero;stroke:none" transform="translate(321 340)"/><path d="m0 0 9 7 11 3c3 0 2 7 2 9s1 6 3 7c3 1 4 4-1 1-6-3-8-7-9-9s-2-4-5-6C8 10-5-3 0 0" style="fill:#bdbdbc;fill-opacity:1;fill-rule:nonzero;stroke:none" transform="translate(334 319)"/><path d="M0 0c1 3 3 5 5 6l7 8c11 4 37 0 56 0 20 1 42 9 42 9l15 1c5 1 26 0 36 2 10 3 18 2 18 2h1s-5 5-8 5c-3 1 0 5 1 7 0 2 6 1 8-1h3c-1 2 3 1 4 2s-2 6-4 8c-2 3-8 3-11 3s-3 3-7 5c-1 0-8 1-3-2s6-6 4-6c-2-1-6 2-14-1-9-3-17-6-7-5 9 1 13 2 18 1 4 0 2 4 6 3s7-1 3-3c-5-2-12-1-14-3-2-3-5-9-12-10-8-2-17-2-15 1 3 3-1 5 2 6 4 2 1 2-4 2-6-1-15 0-17-2-3-1-12 1-7-3 5-3 1-2-3-1-4 2-6 3-10 2-3-1 7-3 3-5-3-1-6-5-15-6-8 0-9-5-14-4l-16-1-19 1H9c-4 1-3-1-1-3 1-2-2-8-3-8C4 11 0 0 0 0" style="fill:#bdbdbc;fill-opacity:1;fill-rule:nonzero;stroke:none" transform="translate(78 309)"/><path d="M0 0c0-2 1-6 2-2 2 5 0 9-2 2" style="fill:#bdbdbc;fill-opacity:1;fill-rule:nonzero;stroke:none" transform="translate(272 351)"/><path d="M0 0c4 1 6-1 6-3-1-1-7-5-8-3-2 2-1 5 2 6" style="fill:#bdbdbc;fill-opacity:1;fill-rule:nonzero;stroke:none" transform="translate(333 400)"/><path d="m0 0-1-5s-15 8-18 20c0 0-17 11-24 30 0 0-5 5-7 14 0 0-5 3-8 9-4 6-17 14-17 14l-7 4c-1 0-4 6-1 4 4-1 7-3 9-5l9-7c3-1 4-3 5-5s3-3 3-1 0 5 3 4c2-1 4-3 4-5s0-4-2-4-4-1-1-2c2-2 3-3 5-2l6 6c2 2 3-3 6-2 5 0 14-2 10-3-5-1-12-2-12-5l3-12c1-3 2-11 6-13s12-9 13-12c0-3-4-5 2-7 5-3 5-8 9-9 3-1 5-6 5-6" style="fill:#bdbdbc;fill-opacity:1;fill-rule:nonzero;stroke:none" transform="translate(332 255)"/><path d="M0 0c0 3 1 3 3 3 1-1-2 0 2-3 3-2 3-2 2-4S2-9 3-6c1 4-4 2-3 6" style="fill:#bdbdbc;fill-opacity:1;fill-rule:nonzero;stroke:none" transform="translate(303 375)"/><path d="M0 0c0-2 3-4 4-2S3 0 2 1 0 3 0 0" style="fill:#bdbdbc;fill-opacity:1;fill-rule:nonzero;stroke:none" transform="translate(303 361)"/><path d="M0 0c4-1 6 2 6 4 0 1-2 5 3 4 5 0 6 0 7 2l6 1c2 0 3 2 3 3l3 4 5 2h-3l-7-1-5-1-5-3-5-2-3-3c-1-1-3 0-4-3 0-3-7-6-1-7" style="fill:#bdbdbc;fill-opacity:1;fill-rule:nonzero;stroke:none" transform="translate(525 508)"/><path d="M0 0c9 0 21 7 23 7 2 1 12 3 14 5 3 1 7 3 7 5l-2-1-6-3-7-2h-6l-6-3h-7C8 6 6 6 2 6l-7-1c-3-1 0-3-1-5l-2-6z" style="fill:#bdbdbc;fill-opacity:1;fill-rule:nonzero;stroke:none" transform="translate(529 492)"/><path d="M0 0c1-2 3-2 1-3-2 0-4 0-3 3v4c-1 1 0 2 1 2 1 1 7 1 7-1 1-3-1-3-2-3-1 1-5 0-4-2" style="fill:#bdbdbc;fill-opacity:1;fill-rule:nonzero;stroke:none" transform="translate(329 448)"/><path d="M0 0c1-1 7 0 6-1-2-1-5-8-7-4s-2 7 1 5" style="fill:#bdbdbc;fill-opacity:1;fill-rule:nonzero;stroke:none" transform="translate(326 440)"/><path d="m0 0 9-1c2-1 2-1-1-1S-2-4-2-7c-1-3 1-6-1-4s-6 0-4 3 3 7 7 8" style="fill:#bdbdbc;fill-opacity:1;fill-rule:nonzero;stroke:none" transform="translate(298 475)"/><path d="M0 0c3 0 4-3 6-3l4-5-7-1C2-8 0-4-2-5l-1-4c-1-1-5 1-4 4 1 2 4 5 7 5" style="fill:#bdbdbc;fill-opacity:1;fill-rule:nonzero;stroke:none" transform="translate(290 463)"/><path d="M0 0c1 0 8-1 5-2C1-2-6-2 0 0" style="fill:#bdbdbc;fill-opacity:1;fill-rule:nonzero;stroke:none" transform="translate(301 468)"/><path d="M0 0h3C2-1-4-3 0 0" style="fill:#bdbdbc;fill-opacity:1;fill-rule:nonzero;stroke:none" transform="translate(280 463)"/><path d="m0 0 6 2c2-1 3-2 1-4-1-3 0 0-2 0l-6-1c-1-1-2 0 1 3" style="fill:#bdbdbc;fill-opacity:1;fill-rule:nonzero;stroke:none" transform="translate(279 471)"/><path d="m0 0 7-3C5-4 1-1-3-2c-3 0-5-1-7-3-1-2-5-3-3 0 3 3 4 4 6 4l4 1h3" style="fill:#bdbdbc;fill-opacity:1;fill-rule:nonzero;stroke:none" transform="translate(295 451)"/><path d="m0 0 6 2c2 0 6 0 4-2C7-1 2-4-1-3s-1 2 1 3" style="fill:#bdbdbc;fill-opacity:1;fill-rule:nonzero;stroke:none" transform="translate(290 444)"/><path d="m0 0 6 4c4 1 5-2 8 0l4 6c0 1 2 6 4 7 1 2 0 8 3 9 4 1 6-2 6-5-1-2-2-6 0-9s4-7 2-9c-2-3-9-6-9-9 0-4 0-8-2-9-3-1-7-2-6-4 1-3 2-4-1-4-2 0-2 3-4 3s-7 2-3 3c3 1 5 3 2 3s-5 0-6 3c0 2-2 2-4 2-3 1-4 1-5 3l-2 3c-1 2-2 4 0 3 2-2 6-1 7 0" style="fill:#bdbdbc;fill-opacity:1;fill-rule:nonzero;stroke:none" transform="translate(286 430)"/><path d="m0 0 3-9c3-2 2-6 4-8v-2c-2 1-4 2-6 1-2 0-3 2-1 2s2 2 2 4L0-4v4" style="fill:#bdbdbc;fill-opacity:1;fill-rule:nonzero;stroke:none" transform="translate(275 447)"/><path d="M0 0c1-3 2-7 0-5-1 2-2 12 0 5" style="fill:#bdbdbc;fill-opacity:1;fill-rule:nonzero;stroke:none" transform="translate(297 403)"/><path d="m0 0-8-11c-1-3-3-14-4-9l1 9c0 4 1 6 3 8 3 3 6 7 9 8 3 2 4 1-1-5" style="fill:#bdbdbc;fill-opacity:1;fill-rule:nonzero;stroke:none" transform="translate(282 387)"/><path d="M0 0c5 1 9-3 6-3H-5c-3 0-2 2 5 3" style="fill:#bdbdbc;fill-opacity:1;fill-rule:nonzero;stroke:none" transform="translate(305 336)"/><path d="M0 0c3 2 7 7 8 10s4 1 7 1c3-1 7-2 3-3-5-1-7-3-6-7 1-3 0-6 3-4 4 1 8 5 7 3 0-2-5-6-6-8 0-3 1-4 5-5 3 0 4-5 5-3 2 3 5 5 6 3 1-3 3-6-2-7-4-1-4-1-7-4-4-2-7 0-6 1 0 1 2 6-2 5-4-2 0-7 0-8 1-1-6-10-7-10-2-1-4 0-3 4v12c0 4-1 4 1 7 3 3-1 3-3 3-3 0-6 2-3 5s-3 3 0 5" style="fill:#bdbdbc;fill-opacity:1;fill-rule:nonzero;stroke:none" transform="translate(338 366)"/><path d="M0 0s8 5 10 1c3-3 3-11 9-8 7 2 7 4 13-1s11-6 11-6L28-56 15-42 2-27-11-8l-4 12 11-4Z" style="fill:#bdbdbc;fill-opacity:1;fill-rule:nonzero;stroke:none" transform="translate(307 303)"/><path d="m0 0 1 3c2 0 1 0 3 3 2 4 3 1 4 6l3 8c2 2 2 6 2 9s1 5-1 8-4 5-3 7c1 1 0 1-1 3l-2 5-5 5c-2 0-2 3-3 3-2 0-1 4-3 6s-3 5-6 5l-7 1c-1-1-4-2-5 1 0 3 0 4-1 2-2-2-2-4-4-3-3 0-6 1-7-1-2-1-4-1-6-4-1-3-4-3-4-5-1-3-4-3-3-5l-2-6-4-6v-9l1-8c1-2 1-2 1 1 1 2 2 7 0 12s1 6 3 9c1 4 6 9 9 11s8 4 13 4c5-1 10 0 13-3 2-2 7-3 6-5-1-3-1-6 1-9s4-10 3-13 3-5 5-6c2 0 5 3 7 1s4-5 3-7-1-6-3-6l-4-1c-2 0-3 0-3-3l-2-9c0-3 0-6 1-4" style="fill:#2e2e2d;fill-opacity:1;fill-rule:nonzero;stroke:none" transform="translate(326 423)"/></g><g clip-path="url(#b)" transform="matrix(1.3333 0 0 -1.3333 0 840)"><path d="M0 0s5-10 10-14c4-4 6-9 9-13 2-3 1-9 4-13 4-3 4-5 4-8s5-10 7-14 2-12 4-13 25 8 25 8l5 21-10 10c-5 4-8 12-12 16L33-3c-6 8-9 18-9 18z" style="fill:#dadada;fill-opacity:1;fill-rule:nonzero;stroke:none" transform="translate(476 284)"/><path d="M0 0s12 9 15 14c3 4 8 14 13 15 6 0 27-10 42-5 13 4 27 0 22-5-6-7-36-17-45-21-16-7-16-18-20-23l-6-10z" style="fill:#dadada;fill-opacity:1;fill-rule:nonzero;stroke:none" transform="translate(524 224)"/><path d="m0 0-13-8s5-10 9-14c5-5 7-10 9-13 3-4 2-10 5-13 3-4 4-5 4-9 0-3 4-10 6-14s2-11 5-12l8 1s-5 10-4 16c0 7-4 11-7 16l-5 16c-1 3-7 9-7 13s-6 7-6 10c1 2-1 5-1 5z" style="fill:#bdbdbc;fill-opacity:1;fill-rule:nonzero;stroke:none" transform="translate(490 292)"/><path d="m0 0-3-5-15-14 7 5 8 7 3 7" style="fill:#bdbdbc;fill-opacity:1;fill-rule:nonzero;stroke:none" transform="translate(542 243)"/><path d="m0 0 5-8 6 10c4 5 4 16 20 23 9 4 38 14 45 21l1 2c-3 0-4-3-6-4l-10-4c-4-1-7 0-13-2-7-1-16-6-21-5-4 2-7-3-9-7-2-3-10-6-11-10C7 13 0 0 0 0" style="fill:#bdbdbc;fill-opacity:1;fill-rule:nonzero;stroke:none" transform="translate(540 197)"/><path d="M0 0h8c3-1-2-3-4-2L0 0" style="fill:#bdbdbc;fill-opacity:1;fill-rule:nonzero;stroke:none" transform="translate(556 239)"/></g><path d="m449 628-4-13 8 1-4 12zm10-12-7-3 7-8v11zm-8-15v-11l8-4v7l-8 8zm-9-1-4-5 2-7 4 3-2 9zm-6-14v-12l2 1-1 11h-1zm15-4-7-5-2-6 7-4 6 6-4 9zm8-8-11-9 8-4 3-6v19zm-11-13-4-7 9-3v8l-5 2zm8-8-2-7 5-1v2l-3 6zm-19 0-1-3v-5l3 3-2 5zm18-12-8-2-3-4 11-2 2 3-2 5zm-12-10 16-11v10l-16 1zm-2-5-5-9V341h23v172l-6 2-12 11z" style="display:inline;fill:#4a4949;fill-opacity:1;fill-rule:nonzero;stroke:none" transform="matrix(1.3333 0 0 -1.3333 0 840)"/><path d="m449 628-1-3v-9h5l-4 12zm10-12-7-3 7-8v11zm-8-15v-11l8-4v7l-8 8zm0-19-3-2v-12l1-1 6 6-4 9zm8-8-11-9 8-4 3-6v19zm-11-13v-8l5-2v8l-5 2zm8-8-2-7 5-1v2l-3 6zm-1-12-7-2v-5l7-1 2 3-2 5zm-7-10v-3l11-8v10l-11 1zm0-12V341h11v172l-6 2-5 4z" style="fill:#2e2e2d;fill-opacity:1;fill-rule:nonzero;stroke:none" transform="matrix(1.3333 0 0 -1.3333 0 840)"/><g clip-path="url(#c)" style="display:inline" transform="matrix(1.3333 0 0 -1.3333 0 840)"><path d="M0 0s0-10 7-11c0 0 3-1 3-6s1-11 5-16c0 0 3-13 6-10 0 0 1-36 14-67 13-30 21-52 40-49 19 4 27 14 34 16 7 3 36 9 46 31 0 0 15 9 22 15 0 0 15 1 27 6s10 10 22 11c0 0 0 4-8 20-8 17-20 30-24 33 0 0-11-8-14-12 0 0-5-1-11-8 0 1-8-3-14-8l-18-11s-21-8-24-14c-4-5-9-5-9-5s3 11-2 18l-3 8c-3 4 1 8-1 23-3 14-3 17 2 34 4 17 12 43 16 48 0 0 8-10 9-15 0 1 8 1 14-1s23-5 33 11c0 0 0 6-3 14 0 0-5 44-21 55 0 0-6 11-18 11l-7 5-6-5s-1 7-9 8c0 0-5 5-8 5h-5s-9 5-10 3c-2-1-9-3-13-6-5-2-9-7-11-8s-4-1-4-6c0-4-3-10-4-13-2-2-3-24-3-24S35 70 30 63C25 55 6 26 0 0" style="fill:#fff;fill-opacity:1;fill-rule:nonzero;stroke:none" transform="translate(330 252)"/><path d="M0 0s4 3 7 8c3 4 3 11 3 11C5 16-3 11-5 6l-2-4s2 1 7-2" style="fill:#2e2e2d;fill-opacity:1;fill-rule:nonzero;stroke:none" transform="translate(371 315)"/><path d="m0 0-8-12c-6-8-13-23-13-23l-8-22c2-6 5-8 5-8 5 2 5 3 8 10l7 13 8 17 4 13c1 3-3 5 4 9 0 0-1 4-7 3" style="fill:#2e2e2d;fill-opacity:1;fill-rule:nonzero;stroke:none" transform="translate(360 313)"/><path d="m0 0-7-12c-2 1-3 0-9 5l5 12s-1 2-3-3c-3-4-6-9-4-11l8-5c4-3 4-2 6 2L1 0c1 3-1 0-1 0" style="fill:#4a4949;fill-opacity:1;fill-rule:nonzero;stroke:none" transform="translate(358 287)"/><path d="M0 0s19-6 25-10c0 0-4 2-6 0-3-2-10-6-10-11-1-6-5-11-7-18s-8-13-7-16c0 0-1 14 4 21s5 14 7 16S16-7 13-7 2-14 0-22l-7-20c-1-2-1-10-2-4-2 5-2 11 0 17l6 17c2 5 2 9 4 9 2-1 1 2-1 3" style="fill:#dadada;fill-opacity:1;fill-rule:nonzero;stroke:none" transform="translate(354 268)"/><path d="m0 0-3-18c-1-2-2-3-3 4 0 6-4 3-2 6l8 8" style="fill:#dadada;fill-opacity:1;fill-rule:nonzero;stroke:none" transform="translate(345 251)"/><path d="m0 0 14 17 18 29S4 11 0 0" style="fill:#dadada;fill-opacity:1;fill-rule:nonzero;stroke:none" transform="translate(376 185)"/><path d="m0 0 16 20s2 10-1 7L0 0" style="fill:#dadada;fill-opacity:1;fill-rule:nonzero;stroke:none" transform="translate(387 219)"/><path d="M0 0s-5-6-5-8c0-3-3-8-4-10s-7-14-4-16c2-2 4-2 5 4 0 6 2 10 3 13L0 0" style="fill:#dadada;fill-opacity:1;fill-rule:nonzero;stroke:none" transform="translate(377 317)"/><path d="m0 0-1-26c-1-3 0-3 1-3 2 0 1-1 1 4L0 0" style="fill:#dadada;fill-opacity:1;fill-rule:nonzero;stroke:none" transform="translate(377 305)"/><path d="m0 0 6-3-6 3" style="fill:#dadada;fill-opacity:1;fill-rule:nonzero;stroke:none" transform="translate(358 271)"/><path d="m0 0 9-3c3-3-9 3-9 3" style="fill:#dadada;fill-opacity:1;fill-rule:nonzero;stroke:none" transform="translate(369 266)"/><path d="m0 0 12-3c4 0 4-1 5-2 0-2-5-5-8-7L0-29l-7-12c-2-4-9-15-5-5l11 22 6 12 3 7-8 5" style="fill:#dadada;fill-opacity:1;fill-rule:nonzero;stroke:none" transform="translate(386 255)"/><path d="M0 0s2 10 12 18c10 7 12 12 15 11 4-1 5 3 8 6 4 2 5 8 7 10 1 2 5 6 2 6-3-1-4 5-6 4l1 3c0 2-6 2-3 4 3 1 6 1 6-1 1-2 4-4 4-2 0 3 2 7-2 7-3 0-7 0-11-3-5-3-18-13-15-15s5 1 8 4 7 4 8 4c2-1 4-3 0-5-3-2-5-7-9-9s-6-6-10-10C11 27 0 9 0 0" style="fill:#dadada;fill-opacity:1;fill-rule:nonzero;stroke:none" transform="translate(388 115)"/><path d="m0 0-5-11c-1-3-8-16-6-10S0 0 0 0" style="fill:#dadada;fill-opacity:1;fill-rule:nonzero;stroke:none" transform="translate(417 134)"/><path d="m0 0-6-11-7-15c-2-4-8-17-3-11 4 7 9 22 13 22s-2-6-4-11l-8-18c-2-5 0-5 4 3s6 12 8 11-1-3-3-6l-6-13-5-10c0-2-2-7 3-4s9 7 13 8 5 30 5 30z" style="fill:#dadada;fill-opacity:1;fill-rule:nonzero;stroke:none" transform="translate(438 163)"/><path d="M0 0c0 2 1 4 2 0l1-6S0-9 0-6v6" style="fill:#dadada;fill-opacity:1;fill-rule:nonzero;stroke:none" transform="translate(409 102)"/><path d="m0 0-10-6c-12-6-27-7-27-7l-22-15c-6-12-18-20-28-24 0 0-4 17 1 19s12-2 15 4c2 6-3 7-6 11s-11 5-11 5-4 4 2 3 11-2 10 1c-2 3-10 2-10 2s-8 9 0 9c8 1 19-4 25-6 5-2 14-2 22-2 8-1 27 1 27 1C-8-5 0 0 0 0" style="fill:#dadada;fill-opacity:1;fill-rule:nonzero;stroke:none" transform="translate(544 167)"/><path d="M0 0c-10-6-21-4-25-2l-14 1c-1 4-9 15-9 15-4-6-12-32-16-49-4-14-5-19-3-29l-11 5 2-15s2-10-2-14c-3-4 3-10-4-17-7-6-16-24-12-6s10 26 11 32c1 7-8 12-4 19 4 8-5 8-3 14 2 5-4 11-1 16 2 6 13 22 6 17-6-5-16-14-15-10 2 4 9 12 16 18 6 5-1 2-6-2s-18-16-10-5C-92-2-84 4-88 3c-4 0-18-2-19 6 0 7 2 7 6 4 4-4 14-2 11-2-3 1-14 2-17 15 0 0 4-8 9-8 0 0 6 0-1 5s-10 12-2 8c8-5 3 0-3 6-7 6 0 5-1 11-2 6-5 21 1 21l1 9s2-11 4-13v5c0 2 1 6 4 7 3 0 7-2 8 0 0 3 1 9 3 4 3-5 0-7 2-13 2-5 3-8 3 0-1 8 0 3 3 3 2-1 4 9 4 1 1-8 4-15 3-9 0 6 0 14 3 7 3-6 2-8 6-9 5 0 0 12 4 8 5-4 8-13 8-18-1-4 5-10 4-1s-4 20 0 14 4-12 6-15c3-4 3-10 11-15 7-5 7-6 12-7 4-2 7-4 3-7-5-2-13-6-20-5s-3-3 2-3c6 0 11 3 15 2 5-1 11-4 5-4-6-1-22-2-12-3 9-1 11 2 16-1 5-2 6-6 6-6" style="fill:#dadada;fill-opacity:1;fill-rule:nonzero;stroke:none" transform="translate(494 284)"/><path d="M0 0s3 14 7 16c3 3-2 4 3 7l6 3c6 2 3 5 0 3-3-3-12-8-13-11-2-2 1-7-1-6s-4 2-3-1C-1 7-2 1 0 0" style="fill:#dadada;fill-opacity:1;fill-rule:nonzero;stroke:none" transform="translate(481 175)"/></g><path d="M436 315V76l12 7 11 1v199h-4c-1 4-7 13-10 17-2 4-4 8-4 11-1 3-5 4-5 4zm23-238-23-8v-2l23 2zm-7-12-16-1v-2l2-1 14-2 3 4zm7-10-8-1 3-7 5 6zm-10-6-13-2v-3l4-3 8 1zm10-4-5-5-13-3 18-9zm-17-10-6-2v-8l9-4 7 8zm17-18-14-3V4l14 7zm0-17-12-7 12-3zm-23-9v-2l6-9h1l6 10z" style="display:inline;fill:#4a4949;fill-opacity:1;fill-rule:nonzero;stroke:none" transform="matrix(1.3333 0 0 -1.3333 0 840)"/><path d="M448 295V83l11 1v199h-4c0 3-4 8-7 12zm11-218-11-4v-5l11 1v8zm-7-12h-4v-6h4l3 4-3 2zm7-10-8-1 3-7 5 6v2zm-10-6h-1v-5l1 5zm10-4-5-5-6-1v-6l11-5v17zm-11-14v-6l4 4-4 2zm11-14-11-3V5l11 6v6zm0-17-11-6v-2l11-2V0zm-11-10v-1l1 1h-1z" style="fill:#2e2e2d;fill-opacity:1;fill-rule:nonzero;stroke:none" transform="matrix(1.3333 0 0 -1.3333 0 840)"/><g clip-path="url(#d)" transform="matrix(1.3333 0 0 -1.3333 0 840)"><path d="M0 0c-75 13-137 13-140-2-3-14 56-37 131-50 74-14 137-13 140 2C133-36 75-13 0 0m136-50c-3-17-68-19-145-5-78 13-138 38-135 55S-76 20 2 6C79-8 139-33 136-50" style="fill:#2e2e2d;fill-opacity:1;fill-rule:nonzero;stroke:none" transform="translate(159 307)"/></g></svg>